<?xml version="1.0" encoding="UTF-8"?>
<!DOCTYPE svg PUBLIC "-//W3C//DTD SVG 1.1//EN" "http://www.w3.org/Graphics/SVG/1.1/DTD/svg11.dtd">
<svg xmlns="http://www.w3.org/2000/svg" version="1.1" width="2169px" height="2337px" style="shape-rendering:geometricPrecision; text-rendering:geometricPrecision; image-rendering:optimizeQuality; fill-rule:evenodd; clip-rule:evenodd" xmlns:xlink="http://www.w3.org/1999/xlink">
<g><path style="opacity:0.997" fill="#ed1b24" d="M 1306.5,89.5 C 1375.39,89.1464 1441.39,102.646 1504.5,130C 1619.94,184.285 1684.78,275.119 1699,402.5C 1705.79,483.425 1694.46,561.758 1665,637.5C 1622.27,743.467 1561.94,837.8 1484,920.5C 1419.83,985.709 1350.66,1044.54 1276.5,1097C 1225.2,1134 1171.87,1168 1116.5,1199C 1072.01,1223.74 1025.01,1242.08 975.5,1254C 944.737,1260.81 913.737,1262.47 882.5,1259C 847.757,1250.55 820.59,1231.38 801,1201.5C 777.872,1164.07 771.872,1124.07 783,1081.5C 798.03,1027.12 821.363,976.785 853,930.5C 874.291,901.541 899.791,877.041 929.5,857C 969.88,833.122 1012.88,826.455 1058.5,837C 1076.18,842.584 1091.34,852.084 1104,865.5C 1115.06,881.913 1117.39,899.579 1111,918.5C 1109.27,922.953 1107.27,927.286 1105,931.5C 1093.15,949.026 1080.15,965.692 1066,981.5C 1036.36,1012.47 1006.03,1042.81 975,1072.5C 951.844,1096.5 931.844,1122.83 915,1151.5C 908.539,1163.21 904.706,1175.71 903.5,1189C 903.293,1200.44 907.959,1209.11 917.5,1215C 930.778,1221.09 944.444,1222.09 958.5,1218C 997.654,1206.76 1034.99,1191.09 1070.5,1171C 1122.3,1140.85 1171.63,1107.18 1218.5,1070C 1271.39,1028.91 1321.56,984.406 1369,936.5C 1412.89,890.958 1450.22,840.625 1481,785.5C 1505.35,740.115 1522.35,692.115 1532,641.5C 1540.18,592.61 1533.52,545.943 1512,501.5C 1487.78,458.636 1450.95,437.969 1401.5,439.5C 1366.11,440.678 1332.11,448.178 1299.5,462C 1268.91,475.28 1239.24,490.28 1210.5,507C 1161.57,536.27 1112.9,565.936 1064.5,596C 1034.66,615.418 1004.99,635.085 975.5,655C 932.268,686.231 889.601,718.231 847.5,751C 818.51,772.506 787.843,791.506 755.5,808C 727.321,821.726 697.655,830.392 666.5,834C 604.203,835.104 555.703,809.937 521,758.5C 499.547,723.784 493.214,686.451 502,646.5C 508.649,615.218 519.649,585.552 535,557.5C 562.985,509.174 595.985,464.507 634,423.5C 693.775,361.014 759.941,306.847 832.5,261C 914.007,209.58 1000.01,166.58 1090.5,132C 1160.3,105.871 1232.3,91.7048 1306.5,89.5 Z"/></g>
<g><path style="opacity:0.992" fill="#ed1b24" d="M 638.5,1544.5 C 678.108,1543.72 704.274,1562.05 717,1599.5C 723.506,1631.66 714.006,1657.83 688.5,1678C 659.06,1695.74 629.727,1695.74 600.5,1678C 574.712,1656.97 565.878,1630.13 574,1597.5C 579.643,1577.02 591.809,1561.86 610.5,1552C 619.794,1548.92 629.127,1546.42 638.5,1544.5 Z"/></g>
<g><path style="opacity:0.993" fill="#ec1b23" d="M 1903.5,1592.5 C 1904.5,1592.5 1905.5,1592.5 1906.5,1592.5C 1906.5,1757.62 1906.5,1922.62 1906.5,2087.5C 1907.31,2100.12 1907.81,2112.79 1908,2125.5C 1910.26,2137.09 1916.43,2145.92 1926.5,2152C 1933.12,2155.65 1940.12,2158.32 1947.5,2160C 1959.09,2162.44 1970.76,2164.27 1982.5,2165.5C 1983.35,2191.77 1984.02,2217.77 1984.5,2243.5C 1953.15,2245.07 1922.15,2242.57 1891.5,2236C 1830.44,2218.95 1798.28,2178.78 1795,2115.5C 1794.5,1947.5 1794.33,1779.5 1794.5,1611.5C 1831.02,1605.53 1867.36,1599.19 1903.5,1592.5 Z"/></g>
<g><path style="opacity:0.994" fill="#ed1b23" d="M 1220.5,1594.5 C 1222.83,1594.5 1225.17,1594.5 1227.5,1594.5C 1226.56,1640.77 1226.56,1687.1 1227.5,1733.5C 1251.84,1733.61 1276.17,1733.94 1300.5,1734.5C 1299.18,1763.89 1299.18,1793.56 1300.5,1823.5C 1276.17,1823.5 1251.83,1823.5 1227.5,1823.5C 1226.41,1917.7 1226.25,2012.03 1227,2106.5C 1227.07,2119.78 1230.4,2132.11 1237,2143.5C 1246.67,2152.62 1258.17,2158.12 1271.5,2160C 1282.42,2161.57 1293.26,2163.4 1304,2165.5C 1303.21,2190.55 1303.37,2215.89 1304.5,2241.5C 1283.14,2241.86 1261.81,2241.36 1240.5,2240C 1201.03,2237.01 1167.53,2221.51 1140,2193.5C 1122.58,2170.9 1113.24,2145.24 1112,2116.5C 1111.5,1948.17 1111.33,1779.83 1111.5,1611.5C 1147.98,1605.91 1184.31,1600.24 1220.5,1594.5 Z"/></g>
<g><path style="opacity:0.994" fill="#ec1b23" d="M 990.5,1722.5 C 1019.1,1721.3 1047.43,1723.47 1075.5,1729C 1076.31,1729.31 1076.97,1729.81 1077.5,1730.5C 1063.78,1762.44 1049.12,1793.94 1033.5,1825C 1014.84,1824.54 996.178,1824.54 977.5,1825C 947.577,1826.86 919.744,1835.36 894,1850.5C 894.805,1978.55 894.638,2106.88 893.5,2235.5C 856.167,2235.5 818.833,2235.5 781.5,2235.5C 780.347,2101.8 780.181,1971.47 781,1844.5C 782.04,1832.38 786.04,1821.38 793,1811.5C 847.6,1757.44 913.433,1727.78 990.5,1722.5 Z"/></g>
<g><path style="opacity:0.994" fill="#ec1b24" d="M 321.5,1725.5 C 370.247,1720.74 414.58,1732.24 454.5,1760C 485.512,1783.37 504.678,1814.2 512,1852.5C 513.159,1904.41 514.659,1956.24 516.5,2008C 516.5,2031.33 516.5,2054.67 516.5,2078C 515.515,2103.85 513.682,2129.68 511,2155.5C 477.127,2193.87 435.294,2219.7 385.5,2233C 341.332,2245.38 296.665,2247.72 251.5,2240C 198.045,2224.21 158.878,2191.38 134,2141.5C 112.241,2090.92 114.241,2041.25 140,1992.5C 164.832,1950.36 201.332,1924.52 249.5,1915C 265.061,1912.34 280.728,1910.68 296.5,1910C 332.832,1909.5 369.165,1909.33 405.5,1909.5C 405.809,1887.86 400.976,1867.53 391,1848.5C 380.95,1833.81 367.117,1824.64 349.5,1821C 328.514,1816.42 307.514,1816.42 286.5,1821C 255.012,1829.24 224.679,1840.58 195.5,1855C 194.216,1855.68 193.049,1855.52 192,1854.5C 181.598,1828.46 171.098,1802.46 160.5,1776.5C 210.535,1747.6 264.201,1730.6 321.5,1725.5 Z M 322.5,1998.5 C 348.496,1999.06 374.496,1999.39 400.5,1999.5C 401.063,2033.17 401.23,2066.83 401,2100.5C 400.493,2109.22 399.493,2117.89 398,2126.5C 374.459,2149.23 346.292,2158.4 313.5,2154C 274.87,2148.7 250.704,2127.2 241,2089.5C 234.82,2062.37 241.32,2038.87 260.5,2019C 269.57,2012.3 279.57,2007.3 290.5,2004C 301.189,2001.45 311.856,1999.62 322.5,1998.5 Z"/></g>
<g><path style="opacity:0.995" fill="#ed1b24" d="M 1523.5,1729.5 C 1571.11,1726.24 1615.11,1737.07 1655.5,1762C 1680.13,1782.09 1698.3,1806.92 1710,1836.5C 1722.05,1867.73 1729.38,1900.06 1732,1933.5C 1733.95,1955.13 1735.12,1976.79 1735.5,1998.5C 1641.5,1997.26 1547.5,1997.26 1453.5,1998.5C 1454.15,2028.24 1459.98,2056.91 1471,2084.5C 1493.36,2135.84 1532.53,2159.34 1588.5,2155C 1613.4,2151.59 1637.4,2144.92 1660.5,2135C 1673.72,2129.22 1687.05,2123.72 1700.5,2118.5C 1711.97,2141.94 1723.3,2165.44 1734.5,2189C 1734.24,2190.26 1733.57,2191.26 1732.5,2192C 1685.15,2220.9 1633.81,2238.23 1578.5,2244C 1477.58,2251.65 1406.08,2209.81 1364,2118.5C 1328.65,2033.6 1327.65,1947.93 1361,1861.5C 1371.85,1835.45 1385.52,1811.12 1402,1788.5C 1434.53,1752.7 1475.03,1733.03 1523.5,1729.5 Z M 1535.5,1816.5 C 1569.36,1815.33 1592.53,1830.33 1605,1861.5C 1610.6,1878.22 1615.1,1895.22 1618.5,1912.5C 1565.83,1912.5 1513.17,1912.5 1460.5,1912.5C 1463.73,1896.93 1467.89,1881.6 1473,1866.5C 1484.14,1837.54 1504.97,1820.87 1535.5,1816.5 Z"/></g>
<g><path style="opacity:0.995" fill="#ed1b23" d="M 697.5,1737.5 C 699.167,1737.5 700.833,1737.5 702.5,1737.5C 703.33,1903.5 703.664,2069.5 703.5,2235.5C 666.5,2235.5 629.5,2235.5 592.5,2235.5C 592.5,2074.83 592.5,1914.17 592.5,1753.5C 627.715,1748.71 662.715,1743.38 697.5,1737.5 Z"/></g>
</svg>
