<svg id="Layer_1" data-name="Layer 1" xmlns="http://www.w3.org/2000/svg" viewBox="0 0 112.57 122.88"><defs><style>.cls-1{fill:#0161b0;}.cls-2{fill:#bcbdc1;}.cls-3{fill:#db1920;}.cls-4{fill:#21201e;}</style></defs><title>bsnl</title><path class="cls-1" d="M88.13.89C90.25.1,92.74-.48,94.88.57c1.27.82,1.47,2.5,1.53,3.88.2,3.16-1.15,6.13-2.61,8.84a87.31,87.31,0,0,1-9.69,13.32c-4.94,5.92-9.89,11.83-15,17.57-1,1.13-2,2.14-2.92,3.34,1.8,1.93,3.6,3.87,5.31,5.88q-9,0-18,0-.24-9.19-.29-18.39c2.54,1.74,4.53,4.21,7.08,5.87A144.43,144.43,0,0,0,71.7,31.37c3.47-3.21,7-6.39,10.17-9.88A67,67,0,0,0,91.22,9.87a9.47,9.47,0,0,0,1.54-4.7A1.91,1.91,0,0,0,91,3.22a19.11,19.11,0,0,0-6.33,1.17A52.81,52.81,0,0,0,73.93,9.48a7.07,7.07,0,0,1,1.53-1.36A57.65,57.65,0,0,1,88.13.89Z"/><path class="cls-2" d="M42,8.32a29,29,0,0,1,22.5-2.18A29.34,29.34,0,0,1,81.41,20c.22.48.6,1,.46,1.54-3.19,3.49-6.7,6.67-10.17,9.88a144.43,144.43,0,0,1-11.46,9.51c-2.55-1.66-4.54-4.13-7.08-5.87q0,9.2.29,18.39,9,0,18,0c-1.71-2-3.51-3.95-5.31-5.88.87-1.2,2-2.21,2.92-3.34,5.14-5.74,10.09-11.65,15-17.57a30.74,30.74,0,0,1,.25,13.26A29.16,29.16,0,0,1,72.2,58a28.82,28.82,0,0,1-17.4,5c-5.4,0-10.59-2-15.17-4.78l-.09-.08a3.42,3.42,0,0,0-.4-.36,31.05,31.05,0,0,1-9-10,192.51,192.51,0,0,1,19.4-18.7,22.33,22.33,0,0,1,2.71-2c.42,0,.69.41,1,.65,1.71,1.71,3.41,3.44,5.12,5.14.31-5.65.09-11.31.12-17l-.34-.43c-4.68-.15-9.37,0-14-.06a7.07,7.07,0,0,0-3,.31c2.07,1.81,4,3.82,5.87,5.83q-9.57,10-18.42,20.68l-.42.11a5.42,5.42,0,0,1-.75-2.08,29.45,29.45,0,0,1,2-18.46A28.86,28.86,0,0,1,42,8.32Z"/><path class="cls-3" d="M41.11,15.72a7.07,7.07,0,0,1,3-.31c4.68.07,9.37-.09,14,.06l.34.43c0,5.66.19,11.32-.12,17-1.71-1.7-3.41-3.43-5.12-5.14-.31-.24-.58-.65-1-.65a22.33,22.33,0,0,0-2.71,2,192.51,192.51,0,0,0-19.4,18.7c-3.21,3.73-6.46,7.54-8.6,12-.57,1.37-1.27,3.07-.41,4.45,1.08,1.3,3,1.1,4.5.78,3-.79,5.63-2.45,8.31-3.93a36.07,36.07,0,0,0,5.19-3.33,3.42,3.42,0,0,1,.4.36,36.17,36.17,0,0,0-4.3,3,55.63,55.63,0,0,1-11,6.42c-1.82.71-3.93,1.22-5.8.38a4.47,4.47,0,0,1-2.29-3.74c-.24-2.66.95-5.14,2.12-7.44a85.49,85.49,0,0,1,9.35-13.45,2.14,2.14,0,0,0,.5-1l.42-.11Q37.4,31.57,47,21.55c-1.89-2-3.8-4-5.87-5.83Z"/><path class="cls-4" d="M29,91.55c0-5.67,5.1-10.62,10.69-10.8,3.67-.22,7.77.63,10.22,3.59,2.26,2.64,2.7,6.29,2.52,9.64-2.44.07-4.88.08-7.32,0a6.68,6.68,0,0,0-1.7-6.14c-1.81-2-5.63-1.19-6.4,1.4-.63,1.37.19,2.86,1.15,3.84,3.35,3.47,7.79,5.64,11.18,9.07a13.62,13.62,0,0,1,3.88,8.55c.28,3.18-.36,6.71-2.77,9s-5.72,3-8.88,3.17c-3.62.21-7.67-.62-10.09-3.54-2.67-3.19-3.21-7.63-2.84-11.65,2.6,0,5.21,0,7.81,0a42.67,42.67,0,0,0,.38,5.65,4.3,4.3,0,0,0,5,3.59,4.72,4.72,0,0,0,3.54-5.06,5.6,5.6,0,0,0-1.84-3.58c-4-3.1-8-6.3-11.85-9.56A8.85,8.85,0,0,1,29,91.55Z"/><path class="cls-4" d="M0,81.76c5,0,10,0,15,0A8,8,0,0,1,22.24,86c1.11,2.28,1.05,4.92.78,7.38-.35,2.74-1.63,5.73-4.39,6.79,2.89.26,4.26,3.27,4.73,5.78.56,3.24.87,6.74-.37,9.88a10.49,10.49,0,0,1-8.81,6c-4.72,0-9.45,0-14.18,0q0-20.07,0-40.13Zm7.86,5.43c0,3.55,0,7.11,0,10.66a8,8,0,0,0,4.49-.44A4.6,4.6,0,0,0,15,93.77c.22-1.84.18-4-1.28-5.39s-3.86-1.51-5.83-1.19Zm0,16.84c0,4,0,7.89,0,11.84,2,.41,4.28.54,6-.77s2.06-3.52,2.05-5.49a7,7,0,0,0-1.64-4.8,6.17,6.17,0,0,0-5.18-1.53c-.47.12-1.43-.06-1.2.75Z"/><path class="cls-4" d="M59,81.76q4,0,8,0,4.64,12.17,9.31,24.32a6.64,6.64,0,0,0,1,2.14q.06-13.23,0-26.45c2.38,0,4.75,0,7.11,0,0,13.37,0,26.75,0,40.12-2.76,0-5.52,0-8.28,0-3.19-8.66-6.36-17.33-9.61-26,0,.28-.08.86-.11,1.15q0,12.4,0,24.81c-2.49,0-5,0-7.48,0q0-20.07,0-40.13Z"/><path class="cls-4" d="M91.14,81.76c2.69,0,5.37,0,8.06,0,0,11.29-.08,22.58,0,33.87,4.45,0,8.9-.06,13.35,0,0,2.07,0,4.15,0,6.23-7.13,0-14.26,0-21.39,0,0-13.38,0-26.75,0-40.13Z"/></svg>