<?xml version="1.0" encoding="UTF-8"?>
<!DOCTYPE svg PUBLIC "-//W3C//DTD SVG 1.1//EN" "http://www.w3.org/Graphics/SVG/1.1/DTD/svg11.dtd">
<svg xmlns="http://www.w3.org/2000/svg" version="1.1" width="3434px" height="2160px" style="shape-rendering:geometricPrecision; text-rendering:geometricPrecision; image-rendering:optimizeQuality; fill-rule:evenodd; clip-rule:evenodd" xmlns:xlink="http://www.w3.org/1999/xlink">
<g><path style="opacity:1" fill="#fe0000" d="M 1625.5,46.5 C 1787.75,35.3194 1944.08,61.1528 2094.5,124C 2103.17,127 2111.83,130 2120.5,133C 2122.44,133.908 2123.44,135.408 2123.5,137.5C 2128.02,137.97 2132.35,139.137 2136.5,141C 2177.13,161.309 2216.47,183.642 2254.5,208C 2281.17,226.333 2307.83,244.667 2334.5,263C 2353.02,278.764 2371.35,294.764 2389.5,311C 2421.06,341.89 2451.89,373.39 2482,405.5C 2490.09,417.277 2499.42,428.277 2510,438.5C 2510.67,440.5 2511.33,442.5 2512,444.5C 2541.07,480.991 2566.9,519.325 2589.5,559.5C 2590.76,560.382 2591.93,561.382 2593,562.5C 2596.99,571.82 2601.99,580.487 2608,588.5C 2612.16,596.176 2615.66,604.176 2618.5,612.5C 2619.81,613.313 2620.98,614.313 2622,615.5C 2623.15,621.64 2625.82,626.974 2630,631.5C 2630.9,634.49 2631.73,637.49 2632.5,640.5C 2633.32,641.386 2634.32,641.719 2635.5,641.5C 2661.59,704.272 2683.42,768.605 2701,834.5C 2701.83,839.143 2702.5,843.81 2703,848.5C 2707.25,859.426 2709.59,870.759 2710,882.5C 2714.84,896.075 2717.18,910.075 2717,924.5C 2719.43,931.994 2721.1,939.661 2722,947.5C 2725.8,983.329 2728.63,1019.16 2730.5,1055C 2730.52,1082.02 2730.02,1109.52 2729,1137.5C 2726.31,1161.8 2723.97,1186.13 2722,1210.5C 2721.22,1218.05 2719.56,1225.39 2717,1232.5C 2717.41,1244.93 2715.41,1256.93 2711,1268.5C 2710.27,1282.22 2707.6,1295.56 2703,1308.5C 2702.42,1316.3 2701.09,1323.97 2699,1331.5C 2686.74,1374.61 2673.07,1417.28 2658,1459.5C 2642.55,1497.37 2625.89,1534.37 2608,1570.5C 2604.16,1572.63 2602.16,1575.97 2602,1580.5C 2597.43,1583.65 2594.93,1587.98 2594.5,1593.5C 2586.93,1604.3 2580.09,1615.63 2574,1627.5C 2568.93,1631.29 2565.6,1636.29 2564,1642.5C 2562.99,1643.34 2561.82,1643.67 2560.5,1643.5C 2559.07,1649.02 2556.57,1654.02 2553,1658.5C 2534.1,1685.4 2514.44,1711.73 2494,1737.5C 2492.85,1738.74 2491.51,1739.74 2490,1740.5C 2489.75,1743.18 2488.75,1745.51 2487,1747.5C 2450.19,1785.31 2413.03,1822.81 2375.5,1860C 2359.8,1872.19 2344.46,1884.86 2329.5,1898C 2302.81,1916.7 2276.14,1935.37 2249.5,1954C 2214.26,1975.79 2177.93,1995.79 2140.5,2014C 2130.72,2018.56 2120.72,2022.56 2110.5,2026C 2109.74,2027.51 2108.74,2028.85 2107.5,2030C 2101.26,2030.96 2095.59,2033.29 2090.5,2037C 2084.52,2037.43 2079.19,2039.43 2074.5,2043C 2026.55,2060.16 1977.88,2075.16 1928.5,2088C 1905.01,2093.56 1881.34,2098.23 1857.5,2102C 1846.84,2103.08 1836.18,2104.08 1825.5,2105C 1815.75,2107.97 1805.75,2109.64 1795.5,2110C 1743.32,2113.49 1692.82,2114.65 1644,2113.5C 1622.27,2112.17 1600.77,2110.67 1579.5,2109C 1507.92,2099.48 1437.59,2083.82 1368.5,2062C 1325.99,2048.3 1284.99,2031.97 1245.5,2013C 1185.39,1983.98 1128.39,1949.31 1074.5,1909C 1055.68,1894.62 1037.02,1880.29 1018.5,1866C 969.25,1819.08 922.417,1769.92 878,1718.5C 842.961,1672.8 811.628,1624.47 784,1573.5C 780.226,1570.45 778.226,1566.45 778,1561.5C 773.474,1559.29 771.141,1555.62 771,1550.5C 769.579,1547.99 767.912,1545.66 766,1543.5C 765.728,1537.77 763.395,1533.1 759,1529.5C 758.398,1523.35 756.065,1518.01 752,1513.5C 751.587,1508.38 749.587,1504.04 746,1500.5C 713.503,1423.29 689.503,1342.95 674,1259.5C 668.44,1224.69 664.107,1189.69 661,1154.5C 651.998,1020.75 667.664,889.414 708,760.5C 716.591,737.33 724.591,713.997 732,690.5C 733.298,689.44 734.465,688.274 735.5,687C 736.173,683.461 737.006,679.961 738,676.5C 741.476,670.543 744.143,664.209 746,657.5C 747.57,656.386 748.903,655.053 750,653.5C 750.208,647.199 752.542,641.865 757,637.5C 757.276,632.327 759.276,627.994 763,624.5C 764.152,621.56 765.152,618.56 766,615.5C 770.395,611.9 772.728,607.233 773,601.5C 777.212,597.747 779.878,593.08 781,587.5C 784.826,584.062 787.16,579.729 788,574.5C 797.064,560.429 805.731,546.096 814,531.5C 822.121,520.705 829.455,509.372 836,497.5C 840.738,492.36 844.738,486.693 848,480.5C 854.091,471.987 860.424,463.654 867,455.5C 869.194,452.446 870.861,449.112 872,445.5C 884.854,432.329 896.52,418.329 907,403.5C 943.167,366 980,329.167 1017.5,293C 1083.91,237.753 1155.91,190.42 1233.5,151C 1237.64,146.872 1242.64,144.538 1248.5,144C 1255.56,140.146 1262.56,136.146 1269.5,132C 1283.93,127.452 1297.93,121.785 1311.5,115C 1387.01,87.0371 1464.68,66.7038 1544.5,54C 1558.3,53.412 1571.97,51.7453 1585.5,49C 1598.99,48.1525 1612.32,47.3192 1625.5,46.5 Z M 1622.5,533.5 C 1642.86,533.164 1663.19,533.664 1683.5,535C 1747.86,553.098 1776.03,595.598 1768,662.5C 1765.47,702.029 1746.97,731.529 1712.5,751C 1700.51,758.247 1687.51,761.914 1673.5,762C 1647.17,762.667 1620.83,762.667 1594.5,762C 1536.67,739.206 1510.17,696.706 1515,634.5C 1516.14,610.733 1524.14,589.733 1539,571.5C 1547.23,562.598 1556.07,554.431 1565.5,547C 1573.92,543.13 1582.58,539.797 1591.5,537C 1601.94,535.459 1612.27,534.292 1622.5,533.5 Z M 1317.5,625.5 C 1346.94,625.615 1374.61,633.115 1400.5,648C 1422.89,663.727 1439.39,684.227 1450,709.5C 1450.17,725.074 1450.67,740.574 1451.5,756C 1451.46,884.791 1451.46,1015.79 1451.5,1149C 1451.41,1182.69 1446.91,1215.86 1438,1248.5C 1398.9,1368.58 1316.74,1437.75 1191.5,1456C 1115.09,1467.16 1040.76,1457.82 968.5,1428C 928.029,1410.86 896.196,1383.69 873,1346.5C 855.26,1313.48 853.927,1279.81 869,1245.5C 873.335,1236.87 878.002,1228.54 883,1220.5C 897.348,1201.48 913.181,1183.64 930.5,1167C 933.328,1164.75 936.328,1162.75 939.5,1161C 943.858,1159.93 947.858,1160.59 951.5,1163C 987.711,1212.6 1036.71,1236.94 1098.5,1236C 1113.17,1234.07 1127.5,1230.73 1141.5,1226C 1168.7,1212.1 1183.87,1189.94 1187,1159.5C 1187.9,1149.28 1188.73,1139.12 1189.5,1129C 1189.17,1128.67 1188.83,1128.33 1188.5,1128C 1189.17,1111.33 1189.83,1094.67 1190.5,1078C 1190.17,1077.67 1189.83,1077.33 1189.5,1077C 1190.67,1016.89 1191.67,956.222 1192.5,895C 1192.45,853.162 1192.45,810.495 1192.5,767C 1193.3,750.227 1194.14,733.394 1195,716.5C 1195.48,705.893 1198.15,695.893 1203,686.5C 1220.97,660.583 1245.14,643.083 1275.5,634C 1289.44,630.179 1303.44,627.345 1317.5,625.5 Z M 2129.5,803.5 C 2238.22,796.788 2330.72,832.121 2407,909.5C 2464.38,972.886 2493.21,1047.55 2493.5,1133.5C 2491.24,1194.09 2474.74,1250.42 2444,1302.5C 2371.16,1407.06 2272.83,1458.39 2149,1456.5C 2050.36,1453.84 1968.36,1415.84 1903,1342.5C 1855.81,1289.28 1829.31,1227.11 1823.5,1156C 1816.65,1031.04 1864.31,932.373 1966.5,860C 2016.02,827.326 2070.36,808.492 2129.5,803.5 Z M 1613.5,817.5 C 1636.19,817.143 1658.86,817.643 1681.5,819C 1725.5,828.662 1753.66,855.162 1766,898.5C 1766.98,919.389 1767.81,940.222 1768.5,961C 1768.5,1076 1768.5,1191 1768.5,1306C 1767.9,1325.48 1766.74,1344.98 1765,1364.5C 1762.04,1379.75 1755.37,1393.08 1745,1404.5C 1727.14,1428.18 1703.3,1441.02 1673.5,1443C 1650.48,1443.8 1627.48,1443.47 1604.5,1442C 1584.82,1440.67 1567.82,1433.34 1553.5,1420C 1522.72,1391 1509.72,1355.33 1514.5,1313C 1514.51,1190.94 1514.51,1068.61 1514.5,946C 1509.47,898.422 1526.14,860.755 1564.5,833C 1579.63,823.678 1595.96,818.511 1613.5,817.5 Z"/></g>
<g><path style="opacity:1" fill="#fe0000" d="M 2146.5,998.5 C 2201.54,996.925 2242.04,1020.26 2268,1068.5C 2287.53,1113.79 2285.53,1158.12 2262,1201.5C 2234.41,1243.71 2195.24,1263.21 2144.5,1260C 2079.07,1247.9 2042.57,1208.74 2035,1142.5C 2032.29,1109.35 2039.62,1078.68 2057,1050.5C 2066.83,1039.33 2077.33,1028.83 2088.5,1019C 2106.59,1008.47 2125.92,1001.64 2146.5,998.5 Z"/></g>
</svg>
